<svg width="284" height="284" viewBox="0 0 284 284" fill="none" xmlns="http://www.w3.org/2000/svg">
<path d="M270.528 270.528C297.456 243.6 261.741 164.227 190.759 93.2427C119.775 22.259 40.4015 -13.4554 13.4735 13.4723C-13.4543 40.4003 22.2601 119.773 93.2441 190.757C164.228 261.741 243.6 297.456 270.528 270.528Z" stroke="#8946FF" stroke-width="8" stroke-linecap="round" stroke-linejoin="round"/>
<path d="M190.759 190.757C261.741 119.773 297.456 40.4003 270.528 13.4723C243.6 -13.4554 164.228 22.259 93.2441 93.243C22.2601 164.227 -13.4543 243.6 13.4735 270.528C40.4015 297.456 119.775 261.741 190.759 190.757Z" stroke="#8946FF" stroke-width="8" stroke-linecap="round" stroke-linejoin="round"/>
<path d="M125.337 102H158.67" stroke="white" stroke-width="7" stroke-linecap="round" stroke-linejoin="round"/>
<path d="M152 102V129.975L178.187 173.617C178.491 174.122 178.655 174.699 178.663 175.289C178.671 175.879 178.522 176.46 178.232 176.973C177.942 177.487 177.52 177.914 177.011 178.212C176.502 178.509 175.923 178.666 175.333 178.667H108.666C108.076 178.667 107.497 178.511 106.987 178.213C106.477 177.916 106.055 177.489 105.765 176.975C105.474 176.462 105.325 175.88 105.332 175.29C105.34 174.7 105.504 174.123 105.808 173.617L132 129.975V102" stroke="white" stroke-width="7" stroke-linecap="round" stroke-linejoin="round"/>
<path d="M118.517 152.45C124.029 151.417 131.85 151.863 142.004 157C155.442 163.804 164.817 162.379 170.129 160.188" stroke="white" stroke-width="7" stroke-linecap="round" stroke-linejoin="round"/>
</svg>
